<?xml version="1.0" standalone="no"?>
<!DOCTYPE svg PUBLIC "-//W3C//DTD SVG 20010904//EN"
 "http://www.w3.org/TR/2001/REC-SVG-20010904/DTD/svg10.dtd">
<svg version="1.0" xmlns="http://www.w3.org/2000/svg"
 width="1000.000000pt" height="1000.000000pt" viewBox="0 0 1000.000000 1000.000000"
 preserveAspectRatio="xMidYMid meet">
<metadata>
Created by potrace 1.11, written by Peter Selinger 2001-2013
</metadata>
<g transform="translate(0.000000,1000.000000) scale(0.100000,-0.100000)"
fill="#000000" stroke="none">
<path d="M5037 8334 c-1 -1 -65 -4 -142 -8 -77 -3 -151 -8 -165 -10 -14 -2
-47 -7 -75 -11 -138 -18 -350 -69 -465 -110 -25 -9 -52 -18 -60 -20 -32 -7
-219 -89 -305 -133 -330 -170 -589 -378 -855 -688 -109 -126 -241 -333 -338
-528 -84 -170 -188 -471 -207 -599 -4 -23 -8 -44 -11 -48 -4 -7 -30 -175 -40
-264 -9 -83 -12 -380 -3 -435 4 -25 10 -65 13 -90 38 -275 167 -664 341 -1025
57 -119 191 -372 232 -440 7 -11 15 -26 19 -33 5 -10 -109 -131 -347 -369
l-354 -354 -40 6 c-22 4 -83 9 -135 10 -182 6 -330 -54 -465 -190 -81 -82
-142 -182 -161 -265 -4 -19 -9 -42 -12 -50 -19 -74 -8 -288 18 -330 6 -10 50
28 181 158 94 95 175 172 179 172 12 0 286 -59 301 -65 13 -5 48 -138 75 -284
3 -13 6 -27 7 -31 1 -3 -76 -85 -172 -181 l-173 -174 33 -14 c20 -8 82 -16
149 -19 132 -5 230 15 330 69 248 132 388 430 329 696 l-12 52 308 308 308
307 18 -24 c348 -485 604 -794 905 -1095 250 -250 427 -394 594 -483 169 -91
247 -87 435 23 167 98 307 215 565 474 263 264 538 589 774 915 97 134 99 136
119 119 11 -10 143 -142 294 -293 300 -300 277 -268 258 -360 -10 -49 -6 -156
9 -228 52 -250 258 -448 515 -497 48 -9 206 -7 234 4 15 6 27 9 27 6 0 -2 14
1 31 7 l31 11 -173 173 -174 174 24 112 c13 62 24 118 26 123 1 6 5 27 9 47 5
21 15 40 25 42 25 8 290 66 300 66 5 0 86 -77 180 -171 95 -94 174 -169 178
-166 12 13 30 116 32 187 8 276 -157 522 -417 620 -30 11 -70 24 -90 27 -48
10 -192 10 -262 1 l-56 -7 -337 337 -337 337 46 80 c100 172 213 392 307 595
93 201 213 553 246 720 6 30 14 66 17 80 6 31 9 51 18 115 4 28 9 66 11 85 6
43 6 300 0 355 -2 22 -7 68 -10 103 -4 35 -8 71 -10 81 -2 10 -6 36 -9 57 -37
243 -125 512 -249 759 -225 451 -591 844 -1022 1101 -213 126 -520 254 -692
290 -12 2 -34 9 -48 14 -14 5 -25 8 -25 5 0 -2 -14 0 -32 5 -17 5 -49 12 -72
16 -22 3 -43 7 -46 9 -3 2 -33 6 -65 10 -33 4 -71 8 -84 10 -46 8 -298 23
-304 19z m248 -518 c29 -4 80 -12 140 -22 78 -13 273 -67 361 -99 720 -268
1251 -900 1388 -1655 40 -221 41 -551 2 -755 -12 -63 -16 -80 -37 -164 -149
-598 -567 -1115 -1134 -1404 -106 -54 -283 -125 -355 -142 -8 -2 -62 -15 -120
-29 -110 -26 -149 -33 -235 -41 -28 -3 -63 -8 -76 -10 -30 -7 -325 -7 -359 -1
-14 2 -52 7 -85 10 -33 3 -71 8 -85 11 -14 3 -50 10 -80 15 -387 69 -807 296
-1107 597 -342 344 -554 776 -619 1258 -11 78 -11 461 -1 544 20 164 85 413
138 528 10 24 19 47 19 51 0 12 94 194 138 267 118 199 322 432 502 576 325
259 752 434 1140 465 41 4 77 8 79 10 5 4 344 -4 386 -10z"/>
<path d="M4245 6765 c-170 -32 -309 -113 -418 -247 -81 -100 -156 -299 -172
-459 -4 -35 -8 -65 -9 -67 -7 -6 -66 21 -67 31 -1 7 -3 37 -4 67 -3 76 -3 77
-17 77 -7 0 -31 3 -53 7 -77 13 -199 9 -255 -9 -31 -10 -70 -64 -70 -96 0 -90
97 -153 250 -163 36 -2 71 -5 78 -5 27 -2 30 -43 6 -79 -32 -46 -61 -127 -69
-192 -5 -30 -9 -156 -10 -280 -3 -240 -1 -251 49 -291 19 -15 20 -29 22 -175
1 -174 9 -208 59 -259 50 -49 84 -57 252 -56 163 1 204 10 251 54 42 39 56 78
62 172 3 54 9 89 15 88 11 -2 115 -10 225 -18 311 -23 1064 -23 1335 0 28 2
87 6 133 10 46 3 88 6 94 8 7 1 12 -29 13 -86 2 -77 6 -94 31 -134 19 -30 45
-55 73 -70 41 -21 56 -23 208 -23 182 0 215 9 266 70 39 46 47 90 47 258 0 89
4 152 9 152 6 0 22 16 37 35 l26 35 -1 217 c-3 299 -11 355 -68 465 -46 89
-40 100 55 104 130 5 220 43 251 107 38 77 3 138 -93 161 -38 9 -148 9 -212 0
-27 -4 -55 -7 -61 -7 -9 0 -13 -23 -13 -78 l0 -77 -30 -7 c-42 -9 -45 -8 -46
19 -2 38 -19 140 -35 201 -74 283 -270 478 -539 535 -78 17 -149 18 -810 18
-548 0 -742 -3 -795 -13z"/>
</g>
</svg>
